<?xml version="1.0" standalone="no"?>
<!DOCTYPE svg PUBLIC "-//W3C//DTD SVG 20010904//EN"
 "http://www.w3.org/TR/2001/REC-SVG-20010904/DTD/svg10.dtd">
<svg version="1.0" xmlns="http://www.w3.org/2000/svg"
 width="512.000000pt" height="512.000000pt" viewBox="0 0 512.000000 512.000000"
 preserveAspectRatio="xMidYMid meet">
<metadata>
Created by potrace 1.11, written by Peter Selinger 2001-2013
</metadata>
<g transform="translate(0.000000,512.000000) scale(0.100000,-0.100000)"
fill="#000000" stroke="none">
<path d="M0 2560 l0 -2560 2560 0 2560 0 0 2560 0 2560 -2560 0 -2560 0 0
-2560z m4019 1945 c41 -20 100 -52 133 -72 54 -33 61 -42 107 -137 65 -132
125 -315 147 -445 14 -85 16 -145 11 -335 -3 -134 -12 -272 -21 -329 -94 -584
-266 -872 -876 -1471 l-213 -209 -101 5 c-163 8 -267 57 -419 197 -40 36 -82
74 -94 84 -12 11 -68 36 -125 57 -57 21 -102 43 -101 48 5 21 395 607 407 610
12 3 477 -91 651 -131 l100 -24 3 146 c7 329 -42 668 -139 962 -29 90 -162
372 -194 413 -19 25 8 59 -254 -329 -624 -927 -1038 -1695 -1247 -2312 -31
-92 -62 -173 -68 -179 -6 -6 -213 -89 -461 -184 -247 -95 -456 -175 -464 -178
-11 -4 -12 6 -7 54 58 479 593 2083 945 2838 28 60 50 111 47 113 -2 2 -196
-59 -432 -136 -235 -77 -430 -138 -432 -136 -7 7 119 428 132 442 22 24 828
368 1161 496 164 63 365 129 432 142 32 6 32 6 23 -22 -7 -21 -388 -1315 -427
-1448 -3 -11 29 34 71 99 346 539 662 865 1140 1177 179 118 404 227 471 229
11 0 54 -16 94 -35z"/>
</g>
</svg>
